HIERARCHY
ROOT Hips
{
 OFFSET 0.000000 0.000000 0.000000
 CHANNELS 6 Xposition Yposition Zposition Yrotation Xrotation Zrotation
 JOINT Chest
 {
  OFFSET 0.000000 10.385163 0.011643
  CHANNELS 3 Yrotation Xrotation Zrotation
  JOINT Chest2
  {
   OFFSET 0.000000 11.579334 -0.021150
   CHANNELS 3 Yrotation Xrotation Zrotation
   JOINT Chest3
   {
    OFFSET 0.000000 10.463212 0.000000
    CHANNELS 3 Yrotation Xrotation Zrotation
    JOINT Chest4
    {
     OFFSET 0.000000 10.463212 0.000000
     CHANNELS 3 Yrotation Xrotation Zrotation
     JOINT Neck
     {
      OFFSET 0.000000 14.544862 0.000000
      CHANNELS 3 Yrotation Xrotation Zrotation
      JOINT Head
      {
       OFFSET 0.000000 9.730630 -0.050295
       CHANNELS 3 Yrotation Xrotation Zrotation
       End Site
       {
        OFFSET 0.000000 18.757589 -0.026270
       }
      }
     }
     JOINT RightCollar
     {
      OFFSET -2.985174 8.102313 0.000000
      CHANNELS 3 Yrotation Xrotation Zrotation
      JOINT RightShoulder
      {
       OFFSET -13.558590 0.000000 0.000000
       CHANNELS 3 Yrotation Xrotation Zrotation
       JOINT RightElbow
       {
        OFFSET -28.208579 0.000000 0.000000
        CHANNELS 3 Yrotation Xrotation Zrotation
        JOINT RightWrist
        {
         OFFSET -23.322907 0.000000 0.010349
         CHANNELS 3 Yrotation Xrotation Zrotation
         End Site
         {
          OFFSET -17.603338 0.000000 0.000000
         }
        }
       }
      }
     }
     JOINT LeftCollar
     {
      OFFSET 2.985174 8.102313 0.000000
      CHANNELS 3 Yrotation Xrotation Zrotation
      JOINT LeftShoulder
      {
       OFFSET 13.558590 0.000000 0.000000
       CHANNELS 3 Yrotation Xrotation Zrotation
       JOINT LeftElbow
       {
        OFFSET 28.208579 0.000000 0.000000
        CHANNELS 3 Yrotation Xrotation Zrotation
        JOINT LeftWrist
        {
         OFFSET 23.322907 0.000000 0.010349
         CHANNELS 3 Yrotation Xrotation Zrotation
         End Site
         {
          OFFSET 17.603338 0.000000 0.000000
         }
        }
       }
      }
     }
    }
   }
  }
 }
 JOINT RightHip
 {
  OFFSET -8.341224 -0.057053 -0.005822
  CHANNELS 3 Yrotation Xrotation Zrotation
  JOINT RightKnee
  {
   OFFSET 0.000000 -44.280013 0.005508
   CHANNELS 3 Yrotation Xrotation Zrotation
   JOINT RightAnkle
   {
    OFFSET 0.000000 -43.261728 0.009315
    CHANNELS 3 Yrotation Xrotation Zrotation
    JOINT RightToe
    {
     OFFSET 0.000000 -8.082955 18.257715
     CHANNELS 3 Yrotation Xrotation Zrotation
     End Site
     {
      OFFSET 0.000000 -1.634678 7.189621
     }
    }
   }
  }
 }
 JOINT LeftHip
 {
  OFFSET 8.341224 -0.057053 -0.005822
  CHANNELS 3 Yrotation Xrotation Zrotation
  JOINT LeftKnee
  {
   OFFSET 0.000000 -44.280013 0.005508
   CHANNELS 3 Yrotation Xrotation Zrotation
   JOINT LeftAnkle
   {
    OFFSET 0.000000 -43.261728 0.009315
    CHANNELS 3 Yrotation Xrotation Zrotation
    JOINT LeftToe
    {
     OFFSET 0.000000 -8.082955 18.257715
     CHANNELS 3 Yrotation Xrotation Zrotation
     End Site
     {
      OFFSET 0.000000 -1.634678 7.189621
     }
    }
   }
  }
 }
}
MOTION
Frames: 13
Frame Time: 0.016667
0.000000 95.489079 0.000000 0.000000 -5.826342 0.000000 0.000000 11.116423 0.000000 0.000000 -5.290081 0.000000 0.000000 0.000000 0.000000 0.000000 0.000000 0.000000 0.000000 12.665069 0.000000 0.000000 0.575450 0.000000 0.000000 0.000000 0.000000 0.000000 0.000000 0.000000 2.337306 0.000000 0.000000 -2.337306 0.000000 0.000000 0.000000 0.000000 0.000000 0.000000 0.000000 0.000000 -2.337306 0.000000 0.000000 2.337306 0.000000 0.000000 0.000000 8.578828 0.000000 0.000000 1.905768 0.000000 0.000000 -4.658254 0.000000 0.000000 0.000000 0.000000 0.000000 8.578828 0.000000 0.000000 1.905768 0.000000 0.000000 -4.658254 0.000000 0.000000 0.000000 0.000000
-68.120286 97.548445 -172.988180 -42.680222 -11.841667 -2.189567 -0.958783 9.817893 1.638950 -0.459278 4.360193 0.746027 -0.459260 4.360249 0.746031 -0.349598 3.269675 0.562536 -1.898215 7.473231 -0.401684 -3.568044 -22.291569 0.178992 0.457781 -4.947530 2.787650 -1.082486 -5.930102 79.920452 2.221370 18.247311 -2.310144 4.013632 -0.565688 -1.257296 -0.411448 -6.758414 -13.538392 -1.563632 -6.272666 -72.200985 -2.229625 14.972091 1.786681 2.194693 0.658726 -2.668163 -15.959609 6.519461 -3.724371 -1.740208 20.102881 -1.934669 -3.320010 -7.955446 12.860942 0.061297 -3.653756 -7.893782 2.515227 16.327474 0.506208 2.373611 0.772282 0.011111 9.436562 -6.993715 -2.679781 0.000000 0.000000 0.000000
-68.153926 97.487274 -173.095976 -42.402554 -11.721983 -2.215130 -0.740868 9.743011 1.604982 -0.361839 4.327711 0.726279 -0.361829 4.327743 0.726281 -0.276390 3.245404 0.547018 -2.003689 7.532027 -0.384606 -3.784842 -22.179577 0.265191 0.617056 -4.871657 2.886635 -1.182965 -5.886539 79.725199 2.128658 18.830912 -2.186435 3.704914 -0.242560 -0.551896 -0.270175 -6.781577 -13.572436 -1.382636 -6.461175 -71.816032 -2.313374 14.314817 1.742739 2.048038 0.485492 -2.506934 -16.795182 7.185270 -3.388563 -1.595662 18.657839 -1.996166 -4.057051 -8.329811 10.969086 -0.002725 -2.689689 -6.393437 1.895800 16.204722 0.432041 2.788455 0.773180 0.028316 9.327967 -6.985038 -2.734286 0.000000 0.000000 0.000000
-68.191876 97.431563 -173.191975 -42.249810 -11.595178 -2.218473 -0.489194 9.651231 1.576131 -0.249512 4.287765 0.708148 -0.249512 4.287765 0.708148 -0.192023 3.215540 0.532617 -2.103104 7.601720 -0.369261 -3.988056 -22.047390 0.344116 0.754335 -4.783699 2.972534 -1.178663 -5.895412 79.559609 1.913132 19.367862 -2.175399 3.405872 0.037137 0.104753 -0.147806 -6.782487 -13.612349 -1.184986 -6.617575 -71.488835 -2.379722 13.771235 1.703986 1.841026 0.300202 -2.279403 -17.571687 7.820528 -3.167461 -1.259157 17.231578 -2.002813 -4.570819 -8.641572 9.549434 -0.030115 -1.819051 -4.866197 1.400721 16.087456 0.355224 3.180801 0.750918 0.054459 9.240556 -6.976525 -2.787509 0.000000 0.000000 0.000000
-68.235343 97.377037 -173.270059 -42.299398 -11.452077 -2.176314 -0.168468 9.531549 1.549283 -0.106535 4.235657 0.689585 -0.106531 4.235667 0.689587 -0.084644 3.176649 0.517695 -2.199496 7.684025 -0.354630 -4.184098 -21.891558 0.419230 0.859023 -4.659075 3.041561 -0.999260 -5.993294 79.428481 1.476188 19.897136 -2.331382 3.115423 0.240794 0.699557 -0.054286 -6.735303 -13.664803 -0.966201 -6.747239 -71.216481 -2.444546 13.403944 1.652601 1.518045 0.085880 -1.937700 -18.381461 8.403523 -3.144777 -0.533013 15.811047 -1.959901 -4.749608 -8.852563 8.883321 -0.025433 -1.064503 -3.093747 1.095448 15.972835 0.259154 3.537034 0.693021 0.094447 9.193165 -6.975118 -2.835626 0.000000 -0.000000 0.000000
-68.283120 97.327972 -173.336345 -42.473474 -11.301785 -2.113038 0.186004 9.394807 1.527188 0.051369 4.176068 0.672623 0.051377 4.176088 0.672625 0.033919 3.132148 0.503895 -2.289858 7.777038 -0.341673 -4.366622 -21.715872 0.487151 0.941629 -4.520943 3.098164 -0.714254 -6.145041 79.323224 0.906827 20.378160 -2.596448 2.829261 0.402099 1.246663 0.020524 -6.665222 -13.721826 -0.728692 -6.841163 -70.999943 -2.495552 13.150694 1.605142 1.129696 -0.138843 -1.532332 -19.138081 8.951553 -3.239468 0.368374 14.408700 -1.882923 -4.738275 -8.961709 8.694588 -0.009883 -0.429473 -1.277184 0.914180 15.863817 0.159619 3.870780 0.611754 0.142953 9.166979 -6.973781 -2.882426 0.000000 -0.000000 0.000000
-68.335897 97.302645 -173.397391 -42.664075 -11.165083 -2.078419 0.502223 9.255993 1.525206 0.191944 4.115399 0.665541 0.191944 4.115399 0.665541 0.139408 3.086763 0.497646 -2.359439 7.885792 -0.335630 -4.503578 -21.511783 0.529825 1.011120 -4.425714 3.139392 -0.427921 -6.299573 79.253472 0.357408 20.644784 -2.916741 2.524162 0.571669 1.731332 0.087881 -6.626522 -13.767582 -0.461029 -6.834350 -70.897621 -2.481831 12.939049 1.617626 0.780717 -0.333662 -1.139504 -19.517169 9.491680 -3.311350 1.003133 13.081620 -1.738203 -4.741008 -8.907309 8.622952 -0.000000 0.000000 0.000000 0.783539 15.775998 0.100155 4.200426 0.520646 0.193207 9.126633 -6.951596 -2.938016 0.000000 0.000000 0.000000
-68.393564 97.315287 -173.451939 -42.853872 -11.050800 -2.090183 0.762664 9.116002 1.553155 0.307246 4.054058 0.673008 0.307241 4.054041 0.673007 0.225861 3.040862 0.502503 -2.402844 8.020105 -0.340745 -4.581836 -21.261395 0.535815 1.076751 -4.405531 3.154342 -0.156024 -6.434875 79.245143 -0.182432 20.611821 -3.338753 2.132837 0.794672 2.173716 0.159979 -6.648258 -13.798061 -0.146202 -6.684613 -70.948460 -2.378443 12.741378 1.735567 0.492615 -0.491573 -0.742108 -19.254265 10.039532 -3.312204 1.160767 11.850276 -1.460236 -4.858205 -8.613014 8.604139 0.001045 0.133887 0.360825 0.670970 15.720422 0.093339 4.559169 0.420624 0.239196 9.061051 -6.894465 -3.009717 0.000000 -0.000000 0.000000
-68.456230 97.351668 -173.501247 -43.060454 -10.950438 -2.130460 0.984723 8.973368 1.602167 0.405195 3.991513 0.690724 0.405195 3.991508 0.690724 0.299257 2.994092 0.515183 -2.425684 8.170077 -0.352821 -4.615236 -20.982738 0.516914 1.128979 -4.427307 3.152126 0.116743 -6.574841 79.274701 -0.698573 20.364249 -3.816508 1.711546 1.025981 2.548508 0.224560 -6.701751 -13.818386 0.199798 -6.428363 -71.108296 -2.214632 12.584453 1.914273 0.247425 -0.621552 -0.353609 -18.609802 10.579255 -3.279784 1.047457 10.692200 -1.108097 -4.993915 -8.155880 8.702684 0.000110 0.066724 0.180494 0.608798 15.686944 0.125711 4.913835 0.310738 0.286599 8.981136 -6.816545 -3.090242 0.000000 0.000000 0.000000
-68.524910 97.387377 -173.555648 -43.228560 -10.859093 -2.194941 1.148821 8.839438 1.659936 0.477311 3.932703 0.713540 0.477311 3.932703 0.713540 0.353245 2.950091 0.531870 -2.429729 8.311153 -0.364599 -4.612115 -20.721162 0.489647 1.148377 -4.449924 3.159222 0.332998 -6.736329 79.279183 -0.998088 19.995076 -4.164053 1.416877 1.174331 2.771372 0.256090 -6.755033 -13.827047 0.538852 -6.118887 -71.311585 -2.019437 12.477854 2.074955 0.096740 -0.708898 -0.093252 -18.044191 11.094889 -3.203325 0.856094 9.603251 -0.821581 -5.048198 -7.706281 8.748092 -0.000000 0.000000 0.000000 0.621019 15.659584 0.201798 5.183239 0.201601 0.346443 8.884504 -6.739382 -3.167854 0.000000 0.000000 0.000000
-68.599189 97.418105 -173.620583 -43.337229 -10.760022 -2.295617 1.242516 8.706663 1.730654 0.518022 3.874209 0.743510 0.518017 3.874203 0.743509 0.383642 2.906284 0.554131 -2.413468 8.440578 -0.377272 -4.569068 -20.481881 0.451158 1.117854 -4.463535 3.181852 0.475139 -6.923227 79.237136 -1.010818 19.463466 -4.325477 1.313075 1.189611 2.798777 0.241538 -6.794923 -13.814787 0.869181 -5.757403 -71.565677 -1.787631 12.382316 2.201056 0.070975 -0.751637 -0.000414 -17.676184 11.570872 -3.054484 0.573172 8.581616 -0.648037 -4.945742 -7.303122 8.668680 0.000000 0.000000 0.000000 0.739044 15.613593 0.334743 5.329329 0.099132 0.438304 8.761869 -6.666459 -3.242719 -0.000000 0.000000 0.000000
-68.679483 97.448162 -173.690611 -43.407597 -10.669975 -2.420217 1.278217 8.582887 1.810617 0.532871 3.819548 0.778682 0.532868 3.819543 0.778681 0.394628 2.865340 0.580461 -2.378623 8.561092 -0.390075 -4.489821 -20.259647 0.403785 1.054425 -4.477987 3.213566 0.561593 -7.131197 79.170705 -0.808406 18.811751 -4.368211 1.332368 1.117540 2.673323 0.193807 -6.834715 -13.790858 1.191043 -5.342935 -71.865195 -1.522473 12.336275 2.308862 0.145655 -0.751173 -0.032175 -17.385792 12.022831 -2.863167 0.219451 7.630978 -0.528516 -4.761447 -6.906225 8.537911 0.000000 0.000000 0.000000 0.931350 15.572761 0.510734 5.390066 -0.002981 0.542894 8.622517 -6.594459 -3.314760 -0.000000 0.000000 -0.000000
-68.768056 97.466063 -173.759739 -43.447315 -10.634091 -2.527928 1.273935 8.502643 1.875496 0.530130 3.784047 0.807783 0.530130 3.784047 0.807783 0.392446 2.838744 0.602331 -2.331663 8.656352 -0.392881 -4.392772 -20.084229 0.371380 0.989658 -4.481889 3.262251 0.589680 -7.364048 79.081301 -0.413675 18.257825 -4.291302 1.433682 1.008123 2.442367 0.126344 -6.882148 -13.781337 1.470554 -4.927982 -72.128359 -1.262479 12.467672 2.370706 0.290988 -0.696675 -0.184322 -17.278235 12.485209 -2.712201 0.042834 6.756034 -0.447581 -4.618902 -6.566868 8.401338 -0.000000 0.000000 0.000000 1.127919 15.594148 0.694568 5.398378 -0.112272 0.613204 8.492097 -6.534630 -3.371867 0.000000 0.000000 0.000000
